<svg xmlns="http://www.w3.org/2000/svg" version="1" xmlns:xlink="http://www.w3.org/1999/xlink" width="512" zoomAndPan="magnify" viewBox="0 0 384 383.999986" height="512" preserveAspectRatio="xMidYMid meet"><metadata><rdf:RDF xmlns:rdf="http://www.w3.org/1999/02/22-rdf-syntax-ns#" xmlns:dc="http://purl.org/dc/elements/1.1/"><rdf:Description><dc:creator>RealFaviconGenerator</dc:creator><dc:source>https://realfavicongenerator.net</dc:source></rdf:Description></rdf:RDF></metadata><defs><clipPath id="b54ee0460b"><path d="M 64 16 L 320.21875 16 L 320.21875 366 L 64 366 Z M 64 16 " clip-rule="nonzero"></path></clipPath></defs><g clip-path="url(#b54ee0460b)"><path fill="#daa520" d="M 149.515625 16.996094 C 146.074219 17.222656 140.875 17.890625 137.964844 18.480469 C 135.050781 19.074219 130.609375 20.242188 128.089844 21.085938 C 125.574219 21.925781 121.644531 23.582031 119.363281 24.769531 C 117.082031 25.957031 113.445312 28.261719 111.277344 29.890625 C 109.113281 31.519531 105.820312 34.5 103.957031 36.511719 C 102.09375 38.523438 99.527344 41.734375 98.257812 43.648438 C 96.984375 45.566406 94.804688 49.519531 93.414062 52.433594 C 92.027344 55.351562 90.285156 59.820312 89.550781 62.359375 C 88.816406 64.902344 88.015625 68.523438 87.777344 70.410156 C 87.539062 72.292969 87.535156 75.539062 87.765625 77.613281 C 88 79.691406 88.785156 82.964844 89.507812 84.894531 C 90.234375 86.820312 91.863281 89.957031 93.128906 91.859375 C 94.394531 93.765625 96.429688 96.246094 97.65625 97.371094 C 98.878906 98.5 100.90625 100.015625 102.15625 100.742188 C 103.410156 101.472656 105.796875 102.457031 107.460938 102.933594 C 109.664062 103.566406 111.761719 103.742188 115.160156 103.582031 C 118.367188 103.433594 120.5625 103.039062 122.152344 102.324219 C 123.425781 101.753906 125.253906 100.496094 126.214844 99.535156 C 127.179688 98.574219 128.539062 96.535156 129.238281 95.007812 C 130.195312 92.910156 130.570312 91.070312 130.75 87.558594 C 130.945312 83.71875 130.796875 82.347656 129.910156 79.8125 C 129.15625 77.667969 128.15625 76.085938 126.59375 74.597656 C 125.359375 73.421875 123.457031 72.210938 122.351562 71.90625 C 121.25 71.601562 119.398438 71.347656 118.238281 71.347656 C 117.074219 71.34375 113.058594 71.921875 109.3125 72.628906 C 105.566406 73.332031 101.480469 73.910156 100.238281 73.910156 C 98.484375 73.910156 97.671875 73.609375 96.640625 72.582031 C 95.410156 71.351562 95.335938 71.011719 95.621094 68.089844 C 95.792969 66.347656 96.542969 62.964844 97.289062 60.5625 C 98.421875 56.921875 99.039062 55.808594 101.027344 53.835938 C 102.558594 52.3125 104.453125 51.082031 106.339844 50.382812 C 107.953125 49.785156 110.726562 49.0625 112.5 48.773438 C 114.277344 48.484375 117.46875 48.25 119.59375 48.246094 C 121.71875 48.246094 125.414062 48.484375 127.808594 48.78125 C 130.199219 49.078125 133.871094 49.675781 135.964844 50.105469 C 138.058594 50.535156 142.445312 51.664062 145.71875 52.617188 C 148.988281 53.570312 156.863281 56.082031 163.214844 58.199219 C 169.570312 60.316406 177.695312 62.640625 181.273438 63.367188 C 184.851562 64.089844 190.28125 64.933594 193.335938 65.242188 C 197.398438 65.652344 200.273438 65.648438 204.027344 65.226562 C 206.851562 64.910156 211.691406 64.082031 214.78125 63.382812 C 217.871094 62.683594 223.480469 61.183594 227.25 60.050781 C 231.015625 58.917969 238.304688 56.40625 243.445312 54.472656 C 248.589844 52.539062 253 51.136719 253.25 51.359375 C 253.5 51.585938 253.582031 52.085938 253.433594 52.472656 C 253.285156 52.863281 249.613281 55.582031 245.277344 58.515625 C 240.945312 61.445312 234.054688 66.253906 229.96875 69.195312 C 225.886719 72.132812 220.800781 75.953125 218.675781 77.679688 C 216.550781 79.410156 212.128906 83.484375 208.851562 86.734375 C 205.578125 89.988281 201.152344 95.003906 199.019531 97.878906 C 196.886719 100.757812 194 105.148438 192.597656 107.632812 C 191.199219 110.121094 189.242188 114.011719 188.246094 116.28125 C 187.25 118.550781 185.714844 122.652344 184.835938 125.402344 C 183.957031 128.148438 182.792969 132.414062 182.25 134.878906 C 181.707031 137.347656 181.105469 140.691406 180.90625 142.316406 C 180.710938 143.941406 180.476562 145.269531 180.382812 145.269531 C 180.289062 145.269531 178.144531 144.574219 175.613281 143.726562 C 173.078125 142.878906 168.734375 141.710938 165.957031 141.132812 C 163.179688 140.554688 158.132812 139.949219 154.746094 139.789062 C 150.234375 139.578125 147.304688 139.722656 143.804688 140.335938 C 141.179688 140.796875 137.25 141.859375 135.078125 142.699219 C 132.90625 143.539062 129.746094 145.132812 128.050781 146.246094 C 126.355469 147.355469 123.582031 149.542969 121.890625 151.105469 L 118.808594 153.949219 L 121.902344 153.972656 C 123.605469 153.984375 126.953125 154.234375 129.347656 154.527344 C 131.738281 154.820312 135.890625 155.632812 138.574219 156.332031 C 141.257812 157.03125 145.632812 158.652344 148.300781 159.933594 C 150.964844 161.214844 154.582031 163.285156 156.332031 164.535156 C 158.082031 165.78125 160.914062 168.203125 162.621094 169.910156 C 164.328125 171.617188 166.871094 174.726562 168.269531 176.820312 C 169.671875 178.914062 171.5625 182.550781 172.46875 184.894531 C 173.375 187.242188 174.523438 191.128906 175.019531 193.539062 C 175.515625 195.945312 176.089844 200.03125 176.296875 202.621094 L 176.667969 207.332031 L 171.773438 205.582031 C 169.078125 204.617188 164.960938 203.339844 162.617188 202.742188 C 160.277344 202.144531 155.929688 201.332031 152.960938 200.9375 C 149.988281 200.542969 145.824219 200.214844 143.707031 200.210938 C 141.589844 200.207031 138.355469 200.445312 136.519531 200.742188 C 134.683594 201.035156 131.289062 201.925781 128.976562 202.71875 C 126.664062 203.511719 123.074219 205.222656 121 206.515625 C 118.921875 207.808594 116.820312 209.316406 116.324219 209.863281 C 115.4375 210.839844 115.503906 210.882812 119.425781 211.714844 C 121.625 212.183594 126.316406 213.371094 129.847656 214.359375 C 133.375 215.347656 139.238281 217.34375 142.875 218.796875 C 146.511719 220.246094 152.011719 222.875 155.09375 224.636719 C 158.179688 226.394531 162.480469 229.15625 164.652344 230.773438 C 166.828125 232.386719 171.148438 236.277344 174.253906 239.414062 C 177.386719 242.582031 181.246094 247.136719 182.929688 249.65625 C 184.59375 252.148438 186.835938 256.226562 187.910156 258.722656 C 188.988281 261.21875 190.328125 265.070312 190.894531 267.28125 C 191.460938 269.492188 192.300781 273.613281 192.761719 276.4375 C 193.269531 279.523438 193.621094 284.835938 193.648438 289.78125 C 193.6875 295.933594 193.476562 298.882812 192.820312 301.535156 C 192.339844 303.480469 191.214844 306.445312 190.324219 308.117188 C 189.429688 309.789062 187.683594 312.054688 186.4375 313.148438 C 185.191406 314.246094 183.210938 315.601562 182.035156 316.160156 C 180.710938 316.792969 177.65625 317.417969 173.988281 317.8125 C 168.855469 318.363281 167.140625 318.328125 160.945312 317.554688 C 157.023438 317.0625 148.941406 315.773438 142.984375 314.6875 C 137.027344 313.601562 130.308594 312.414062 128.050781 312.046875 C 125.792969 311.679688 120.246094 311.394531 115.730469 311.410156 C 108.609375 311.4375 106.859375 311.613281 102.597656 312.75 C 99.894531 313.472656 96.199219 314.804688 94.382812 315.714844 C 92.570312 316.621094 89.691406 318.355469 87.984375 319.566406 C 86.277344 320.777344 83.414062 323.335938 81.621094 325.25 C 79.832031 327.164062 77.359375 330.289062 76.128906 332.191406 C 74.898438 334.089844 72.960938 337.570312 71.824219 339.921875 C 70.6875 342.273438 68.855469 346.96875 67.757812 350.355469 C 66.660156 353.746094 65.355469 358.441406 64.855469 360.792969 C 64.070312 364.480469 64.046875 365.128906 64.683594 365.539062 C 65.191406 365.863281 65.578125 365.746094 65.933594 365.15625 C 66.214844 364.683594 67.992188 361.957031 69.878906 359.089844 C 71.878906 356.054688 74.824219 352.453125 76.9375 350.457031 C 78.933594 348.578125 81.664062 346.484375 83.003906 345.808594 C 84.34375 345.132812 86.632812 344.328125 88.089844 344.019531 C 90.144531 343.582031 91.675781 343.625 94.933594 344.195312 C 97.238281 344.601562 102.980469 346.195312 107.683594 347.738281 C 112.390625 349.28125 119.535156 351.492188 123.558594 352.65625 C 127.582031 353.816406 133.816406 355.4375 137.417969 356.257812 C 141.019531 357.078125 146.042969 358.023438 148.585938 358.355469 C 151.3125 358.714844 155.273438 358.828125 158.257812 358.632812 C 161.035156 358.453125 165.335938 357.859375 167.816406 357.320312 C 170.296875 356.777344 174.144531 355.726562 176.371094 354.980469 C 178.59375 354.238281 183.878906 351.933594 188.113281 349.863281 C 192.347656 347.792969 198.964844 344.003906 202.816406 341.449219 C 206.667969 338.890625 212.164062 334.933594 215.027344 332.652344 C 217.890625 330.371094 222.941406 326.117188 226.25 323.207031 C 229.554688 320.292969 235.390625 314.699219 239.21875 310.773438 C 243.042969 306.851562 248.105469 301.214844 250.472656 298.25 C 252.835938 295.285156 256.441406 290.320312 258.480469 287.214844 C 260.519531 284.105469 263.195312 279.71875 264.429688 277.460938 C 265.664062 275.199219 267.632812 271.273438 268.804688 268.730469 C 269.976562 266.191406 271.894531 261.339844 273.066406 257.953125 C 274.238281 254.5625 275.980469 248.558594 276.9375 244.605469 C 277.890625 240.652344 279.136719 234.183594 279.703125 230.230469 C 280.269531 226.277344 281.003906 219.578125 281.332031 215.34375 C 281.769531 209.722656 281.808594 198.910156 281.480469 175.300781 C 281.234375 157.511719 281.03125 133.140625 281.03125 121.140625 C 281.03125 102.847656 281.183594 98.203125 281.972656 92.390625 C 282.492188 88.578125 283.6875 82.457031 284.628906 78.789062 C 285.570312 75.117188 287.410156 69.457031 288.714844 66.210938 C 290.019531 62.960938 292.488281 57.84375 294.207031 54.832031 C 295.925781 51.816406 299.402344 46.679688 301.9375 43.414062 C 304.472656 40.148438 309.640625 34.261719 313.425781 30.332031 C 318.484375 25.082031 320.304688 22.855469 320.304688 21.921875 C 320.304688 21.222656 320.171875 19.980469 320.007812 19.164062 L 319.710938 17.675781 L 308.585938 21.382812 C 302.464844 23.421875 293.878906 26.003906 289.503906 27.125 C 285.125 28.242188 278.660156 29.652344 275.128906 30.25 C 271.597656 30.851562 266.054688 31.476562 262.808594 31.640625 C 258.785156 31.84375 254.542969 31.664062 249.496094 31.078125 C 245.421875 30.601562 238.257812 29.523438 233.582031 28.679688 C 228.902344 27.835938 222.417969 26.46875 219.171875 25.640625 C 215.925781 24.8125 209.574219 23.335938 205.054688 22.359375 C 200.539062 21.382812 193.027344 20.003906 188.371094 19.292969 C 183.710938 18.582031 177.128906 17.769531 173.738281 17.488281 C 170.351562 17.207031 164.921875 16.886719 161.675781 16.78125 C 158.429688 16.675781 152.957031 16.773438 149.515625 16.996094 M 281.800781 43.273438 C 278.273438 45.316406 272.9375 48.640625 269.941406 50.65625 C 266.949219 52.675781 262.214844 56.148438 259.417969 58.375 C 256.625 60.605469 252.289062 64.367188 249.785156 66.742188 C 247.285156 69.113281 243.390625 73.253906 241.140625 75.949219 C 238.886719 78.640625 235.585938 83.035156 233.800781 85.71875 C 232.015625 88.398438 229.492188 92.671875 228.191406 95.207031 C 226.890625 97.746094 224.929688 102.136719 223.832031 104.960938 C 222.734375 107.789062 221.234375 112.527344 220.503906 115.492188 C 219.769531 118.457031 218.789062 123.191406 218.320312 126.015625 C 217.566406 130.546875 217.421875 139.359375 217.109375 200.96875 C 216.804688 261.324219 216.644531 271.582031 215.921875 276.667969 C 215.464844 279.902344 214.710938 284.40625 214.253906 286.679688 C 213.792969 288.949219 212.839844 292.65625 212.132812 294.914062 C 211.429688 297.171875 209.792969 301.082031 208.5 303.597656 C 207.207031 306.113281 204.839844 309.925781 203.242188 312.066406 C 201.644531 314.210938 198.28125 317.933594 195.765625 320.339844 C 193.25 322.75 189.007812 326.175781 186.339844 327.960938 C 183.667969 329.746094 179.226562 332.335938 176.472656 333.71875 C 172.71875 335.601562 171.535156 336.429688 171.761719 337.019531 C 171.988281 337.613281 172.515625 337.726562 173.925781 337.480469 C 174.953125 337.304688 178.019531 336.609375 180.742188 335.933594 C 183.464844 335.261719 187.738281 333.992188 190.242188 333.113281 C 192.742188 332.238281 196.890625 330.511719 199.464844 329.285156 C 202.035156 328.054688 206.308594 325.601562 208.960938 323.832031 C 211.636719 322.046875 215.957031 318.4375 218.675781 315.722656 C 221.367188 313.03125 224.890625 308.839844 226.503906 306.40625 C 228.121094 303.972656 230.367188 299.980469 231.496094 297.535156 C 232.628906 295.085938 234.332031 290.492188 235.28125 287.324219 C 236.234375 284.15625 237.503906 279.023438 238.101562 275.917969 C 238.699219 272.8125 239.566406 267.382812 240.027344 263.855469 C 240.742188 258.40625 240.925781 248.464844 241.253906 197.886719 C 241.496094 160.300781 241.851562 136.347656 242.214844 132.949219 C 242.53125 129.984375 243.269531 124.324219 243.855469 120.371094 C 244.441406 116.417969 245.691406 110.179688 246.636719 106.507812 C 247.582031 102.839844 249.085938 97.757812 249.976562 95.214844 C 250.871094 92.675781 252.984375 87.824219 254.675781 84.433594 C 256.367188 81.046875 259.664062 75.386719 261.996094 71.855469 C 264.328125 68.328125 268.128906 63.015625 270.445312 60.050781 C 272.757812 57.089844 277.773438 51.257812 281.59375 47.089844 C 285.410156 42.921875 288.464844 39.523438 288.378906 39.535156 C 288.292969 39.546875 285.332031 41.230469 281.800781 43.273438 " fill-opacity="1" fill-rule="evenodd"></path></g></svg>