<?xml version="1.0" standalone="no"?>
<!DOCTYPE svg PUBLIC "-//W3C//DTD SVG 20010904//EN"
 "http://www.w3.org/TR/2001/REC-SVG-20010904/DTD/svg10.dtd">
<svg version="1.0" xmlns="http://www.w3.org/2000/svg"
 width="788.000000pt" height="788.000000pt" viewBox="0 0 788.000000 788.000000"
 preserveAspectRatio="xMidYMid meet">

<g transform="translate(0.000000,788.000000) scale(0.100000,-0.100000)"
fill="#000000" stroke="none">
<path d="M3208 7330 c-309 -36 -518 -107 -708 -241 -228 -161 -396 -423 -471
-734 -37 -154 -19 -299 52 -436 102 -195 256 -301 439 -303 125 0 192 22 255
87 67 68 90 137 90 262 -1 72 -5 100 -23 140 -63 139 -164 171 -404 126 -57
-11 -122 -22 -144 -26 -56 -9 -111 14 -120 50 -19 77 38 283 95 342 74 76 200
113 389 113 195 0 421 -50 808 -179 373 -125 510 -153 739 -155 160 -1 243 12
470 75 134 36 409 130 552 188 51 20 53 20 62 2 9 -16 -7 -30 -122 -106 -175
-117 -443 -307 -540 -384 -103 -82 -286 -259 -357 -346 -216 -264 -362 -594
-410 -922 -7 -46 -15 -83 -18 -83 -3 0 -54 16 -113 35 -161 52 -270 69 -444
69 -155 0 -207 -9 -335 -55 -80 -29 -180 -92 -252 -159 l-63 -58 55 -5 c276
-27 372 -49 516 -116 118 -56 198 -113 294 -211 161 -164 241 -357 266 -642 4
-54 3 -78 -5 -78 -6 0 -41 12 -78 26 -182 69 -436 110 -618 101 -172 -9 -320
-61 -454 -160 -64 -47 -75 -39 114 -82 401 -91 737 -264 984 -507 214 -212
326 -428 378 -728 23 -134 24 -465 2 -535 -65 -200 -163 -282 -364 -305 -137
-16 -253 -2 -770 90 -321 57 -564 50 -745 -21 -159 -64 -302 -177 -404 -321
-99 -141 -198 -380 -244 -595 -18 -84 -18 -92 -3 -98 10 -4 20 0 26 11 100
173 238 330 333 377 127 64 186 60 497 -38 374 -119 579 -172 766 -199 134
-20 204 -20 338 0 422 62 931 375 1441 884 540 539 785 1045 872 1800 14 126
17 648 8 1770 -5 583 -3 657 13 770 75 526 253 877 644 1269 121 121 123 124
117 160 -12 75 5 75 -220 -1 -230 -78 -537 -158 -707 -185 -146 -23 -399 -23
-557 1 -211 32 -384 64 -510 96 -296 75 -645 138 -885 160 -161 15 -438 20
-527 10z m2691 -537 c-424 -442 -657 -840 -759 -1296 -80 -361 -81 -389 -90
-1722 -8 -1204 -9 -1226 -50 -1480 -44 -276 -128 -508 -249 -690 -65 -99 -228
-259 -340 -333 -189 -126 -394 -206 -713 -276 -9 -2 -18 4 -21 14 -4 15 15 28
97 69 131 66 239 137 345 231 237 209 362 451 415 800 37 244 39 306 46 1670
7 1320 7 1358 28 1463 65 336 192 613 402 877 84 105 306 322 421 412 106 82
310 217 444 292 55 30 102 56 104 56 2 0 -34 -39 -80 -87z"/>
</g>
</svg>
